<svg xmlns="http://www.w3.org/2000/svg" viewBox="0 0 1440 900" preserveAspectRatio="xMidYMid slice">
  <defs>
    <linearGradient id="sky" x1="0" y1="0" x2="0" y2="1">
      <stop offset="0" stop-color="#ffd9a8"/>
      <stop offset="0.5" stop-color="#f6b6b0"/>
      <stop offset="1" stop-color="#cdbbe0"/>
    </linearGradient>
  </defs>
  <rect width="1440" height="900" fill="url(#sky)"/>
  <circle cx="720" cy="320" r="96" fill="#fff0cf" opacity="0.95"/>
  <!-- back skyline -->
  <g fill="#9f8fb6" opacity="0.7">
    <rect x="40" y="480" width="120" height="420"/>
    <rect x="220" y="420" width="100" height="480"/>
    <rect x="400" y="500" width="140" height="400"/>
    <rect x="640" y="440" width="110" height="460"/>
    <rect x="840" y="500" width="130" height="400"/>
    <rect x="1060" y="430" width="120" height="470"/>
    <rect x="1260" y="490" width="140" height="410"/>
  </g>
  <!-- front skyline -->
  <g fill="#54486b">
    <rect x="0" y="560" width="150" height="340"/>
    <rect x="170" y="520" width="120" height="380"/>
    <rect x="320" y="600" width="150" height="300"/>
    <rect x="500" y="540" width="130" height="360"/>
    <rect x="670" y="600" width="160" height="300"/>
    <rect x="860" y="540" width="120" height="360"/>
    <rect x="1010" y="590" width="160" height="310"/>
    <rect x="1200" y="540" width="130" height="360"/>
    <rect x="1350" y="600" width="90" height="300"/>
  </g>
  <!-- lit windows -->
  <g fill="#ffe9a8" opacity="0.85">
    <rect x="30" y="590" width="14" height="18"/><rect x="70" y="590" width="14" height="18"/><rect x="110" y="590" width="14" height="18"/>
    <rect x="200" y="560" width="14" height="18"/><rect x="240" y="560" width="14" height="18"/>
    <rect x="540" y="580" width="14" height="18"/><rect x="580" y="580" width="14" height="18"/>
    <rect x="900" y="580" width="14" height="18"/><rect x="940" y="580" width="14" height="18"/>
    <rect x="1240" y="580" width="14" height="18"/><rect x="1280" y="580" width="14" height="18"/>
  </g>
</svg>
