<svg xmlns="http://www.w3.org/2000/svg" viewBox="0 0 1200 360" preserveAspectRatio="xMidYMid slice">
  <defs>
    <linearGradient id="g" x1="0" y1="0" x2="1" y2="1">
      <stop offset="0" stop-color="#eef5fc"/>
      <stop offset="0.45" stop-color="#cfe0f5"/>
      <stop offset="0.55" stop-color="#cfe0f5"/>
      <stop offset="1" stop-color="#6f9fdd"/>
    </linearGradient>
    <radialGradient id="hl" cx="0.35" cy="0.25" r="0.6">
      <stop offset="0" stop-color="#ffffff" stop-opacity="0.85"/>
      <stop offset="1" stop-color="#ffffff" stop-opacity="0"/>
    </radialGradient>
    <linearGradient id="line" x1="0" y1="0" x2="1" y2="0">
      <stop offset="0" stop-color="#ffffff" stop-opacity="0.0"/>
      <stop offset="0.5" stop-color="#ffffff" stop-opacity="0.6"/>
      <stop offset="1" stop-color="#3f6fb0" stop-opacity="0.25"/>
    </linearGradient>
  </defs>

  <rect width="1200" height="360" fill="#cfe0f5"/>
  <rect width="1200" height="360" fill="url(#g)"/>
  <rect width="1200" height="360" fill="url(#hl)"/>

  <!-- Flowing line bundles: each <g> repeats a curve at small vertical offsets -->
  <g fill="none" stroke="url(#line)" stroke-width="1">
    <g>
      <path d="M-50 120 C 250 30, 520 250, 820 120 S 1300 60, 1300 120"/>
      <path d="M-50 132 C 250 42, 520 262, 820 132 S 1300 72, 1300 132"/>
      <path d="M-50 144 C 250 54, 520 274, 820 144 S 1300 84, 1300 144"/>
      <path d="M-50 156 C 250 66, 520 286, 820 156 S 1300 96, 1300 156"/>
      <path d="M-50 168 C 250 78, 520 298, 820 168 S 1300 108, 1300 168"/>
      <path d="M-50 180 C 250 90, 520 310, 820 180 S 1300 120, 1300 180"/>
      <path d="M-50 192 C 250 102, 520 322, 820 192 S 1300 132, 1300 192"/>
      <path d="M-50 204 C 250 114, 520 334, 820 204 S 1300 144, 1300 204"/>
    </g>
    <g opacity="0.7">
      <path d="M-50 230 C 300 320, 600 150, 900 250 S 1300 300, 1300 240"/>
      <path d="M-50 242 C 300 332, 600 162, 900 262 S 1300 312, 1300 252"/>
      <path d="M-50 254 C 300 344, 600 174, 900 274 S 1300 324, 1300 264"/>
      <path d="M-50 266 C 300 356, 600 186, 900 286 S 1300 336, 1300 276"/>
      <path d="M-50 278 C 300 368, 600 198, 900 298 S 1300 348, 1300 288"/>
      <path d="M-50 290 C 300 380, 600 210, 900 310 S 1300 360, 1300 300"/>
    </g>
  </g>
</svg>
